<mxfile host="app.diagrams.net" modified="2024-01-16T12:26:40.875Z" agent="Mozilla/5.0 (Windows NT 10.0; Win64; x64) AppleWebKit/537.36 (KHTML, like Gecko) Chrome/119.0.0.0 Safari/537.36" etag="-08KZ21yb9NNN-GjwZEt" version="22.1.17" type="github">
  <diagram name="第 1 页" id="xqMwd2NSLPn6VQPM8lrx">
    <mxGraphModel dx="1050" dy="557" grid="1" gridSize="10" guides="1" tooltips="1" connect="1" arrows="1" fold="1" page="1" pageScale="1" pageWidth="827" pageHeight="1169" math="0" shadow="0">
      <root>
        <mxCell id="0" />
        <mxCell id="1" parent="0" />
        <mxCell id="-x6zuqcDCInKtSSKQxM8-12" style="edgeStyle=orthogonalEdgeStyle;rounded=0;orthogonalLoop=1;jettySize=auto;html=1;exitX=1;exitY=0.5;exitDx=0;exitDy=0;entryX=0;entryY=0.5;entryDx=0;entryDy=0;" edge="1" parent="1" source="-x6zuqcDCInKtSSKQxM8-1" target="-x6zuqcDCInKtSSKQxM8-10">
          <mxGeometry relative="1" as="geometry" />
        </mxCell>
        <mxCell id="-x6zuqcDCInKtSSKQxM8-13" style="edgeStyle=orthogonalEdgeStyle;rounded=0;orthogonalLoop=1;jettySize=auto;html=1;exitX=1;exitY=0.5;exitDx=0;exitDy=0;entryX=0;entryY=0.5;entryDx=0;entryDy=0;" edge="1" parent="1" source="-x6zuqcDCInKtSSKQxM8-1" target="-x6zuqcDCInKtSSKQxM8-11">
          <mxGeometry relative="1" as="geometry" />
        </mxCell>
        <mxCell id="-x6zuqcDCInKtSSKQxM8-1" value="脾主运化" style="ellipse;whiteSpace=wrap;html=1;fontSize=14;fillColor=#f8cecc;strokeColor=#b85450;" vertex="1" parent="1">
          <mxGeometry x="300" y="190" width="80" height="50" as="geometry" />
        </mxCell>
        <mxCell id="-x6zuqcDCInKtSSKQxM8-3" value="脾气的气化" style="rounded=1;whiteSpace=wrap;html=1;fontSize=14;" vertex="1" parent="1">
          <mxGeometry x="190" y="290" width="80" height="40" as="geometry" />
        </mxCell>
        <mxCell id="-x6zuqcDCInKtSSKQxM8-4" value="脾气的升清" style="rounded=1;whiteSpace=wrap;html=1;fontSize=14;" vertex="1" parent="1">
          <mxGeometry x="290" y="290" width="80" height="40" as="geometry" />
        </mxCell>
        <mxCell id="-x6zuqcDCInKtSSKQxM8-5" value="脾阳的温煦" style="rounded=1;whiteSpace=wrap;html=1;fontSize=14;" vertex="1" parent="1">
          <mxGeometry x="380" y="290" width="80" height="40" as="geometry" />
        </mxCell>
        <mxCell id="-x6zuqcDCInKtSSKQxM8-6" value="" style="endArrow=classic;html=1;rounded=0;entryX=0.125;entryY=0.8;entryDx=0;entryDy=0;entryPerimeter=0;" edge="1" parent="1" target="-x6zuqcDCInKtSSKQxM8-1">
          <mxGeometry width="50" height="50" relative="1" as="geometry">
            <mxPoint x="230" y="290" as="sourcePoint" />
            <mxPoint x="280" y="240" as="targetPoint" />
          </mxGeometry>
        </mxCell>
        <mxCell id="-x6zuqcDCInKtSSKQxM8-7" value="" style="endArrow=classic;html=1;rounded=0;entryX=0.5;entryY=1;entryDx=0;entryDy=0;" edge="1" parent="1" target="-x6zuqcDCInKtSSKQxM8-1">
          <mxGeometry width="50" height="50" relative="1" as="geometry">
            <mxPoint x="330" y="290" as="sourcePoint" />
            <mxPoint x="380" y="240" as="targetPoint" />
          </mxGeometry>
        </mxCell>
        <mxCell id="-x6zuqcDCInKtSSKQxM8-8" value="" style="endArrow=classic;html=1;rounded=0;entryX=1;entryY=1;entryDx=0;entryDy=0;exitX=0.5;exitY=0;exitDx=0;exitDy=0;" edge="1" parent="1" source="-x6zuqcDCInKtSSKQxM8-5" target="-x6zuqcDCInKtSSKQxM8-1">
          <mxGeometry width="50" height="50" relative="1" as="geometry">
            <mxPoint x="400" y="460" as="sourcePoint" />
            <mxPoint x="450" y="410" as="targetPoint" />
          </mxGeometry>
        </mxCell>
        <mxCell id="-x6zuqcDCInKtSSKQxM8-10" value="运化水谷" style="rounded=1;whiteSpace=wrap;html=1;fontSize=14;" vertex="1" parent="1">
          <mxGeometry x="530" y="110" width="80" height="40" as="geometry" />
        </mxCell>
        <mxCell id="-x6zuqcDCInKtSSKQxM8-11" value="运化水液" style="rounded=1;whiteSpace=wrap;html=1;fontSize=14;" vertex="1" parent="1">
          <mxGeometry x="530" y="250" width="80" height="40" as="geometry" />
        </mxCell>
      </root>
    </mxGraphModel>
  </diagram>
</mxfile>
